<svg xmlns="http://www.w3.org/2000/svg" version="1.1" xmlns:xlink="http://www.w3.org/1999/xlink" xmlns:svgjs="http://svgjs.com/svgjs" width="1440" height="560" preserveAspectRatio="none" viewBox="0 0 1440 560"><g mask="url(&quot;#SvgjsMask1172&quot;)" fill="none"><rect width="1440" height="560" x="0" y="0" fill="url(#SvgjsLinearGradient1173)"></rect><path d="M55.05 434.95 a169.48 169.48 0 1 0 338.96 0 a169.48 169.48 0 1 0 -338.96 0z" fill="rgba(28, 83, 142, 0.4)" class="triangle-float3"></path><path d="M1267.9094550099685-57.252608245503566L1105.2474327118484-74.34907570591585 1088.1509652514362 88.31294659220411 1250.8129875495563 105.40941405261638z" fill="rgba(28, 83, 142, 0.4)" class="triangle-float1"></path><path d="M-65.5038348513371 145.52634350039403L21.978652333926007 227.10508257349642 16.07490422176528 58.043856315130924z" fill="rgba(28, 83, 142, 0.4)" class="triangle-float3"></path><path d="M778.5661256500937 366.46796234619114L959.5849603672315 353.9832391965923 873.1971288824324 220.9576441932318z" fill="rgba(28, 83, 142, 0.4)" class="triangle-float3"></path><path d="M1366.264,207.797C1382.344,207.399,1391.554,191.635,1399.931,177.904C1408.862,163.265,1421.024,146.647,1412.722,131.643C1404.3,116.421,1383.614,115.782,1366.264,117.055C1351.485,118.14,1337.777,124.908,1330.284,137.693C1322.705,150.626,1322.738,166.308,1329.583,179.644C1337.126,194.341,1349.749,208.205,1366.264,207.797" fill="rgba(28, 83, 142, 0.4)" class="triangle-float1"></path><path d="M565.22 512.61 a104.43 104.43 0 1 0 208.86 0 a104.43 104.43 0 1 0 -208.86 0z" fill="rgba(28, 83, 142, 0.4)" class="triangle-float1"></path><path d="M1256.58 518.49 a93.5 93.5 0 1 0 187 0 a93.5 93.5 0 1 0 -187 0z" fill="rgba(28, 83, 142, 0.4)" class="triangle-float1"></path><path d="M469.25219922177365 443.76100742786474L573.6831632590697 353.1551426792399 460.1127064070231 311.81887689308087z" fill="rgba(28, 83, 142, 0.4)" class="triangle-float1"></path><path d="M1033.8926555183466 89.08191815422526L1121.911433951256 53.520023301356005 1086.3495390983867-34.49875513155327 998.3307606654773 1.0631397213159914z" fill="rgba(28, 83, 142, 0.4)" class="triangle-float3"></path><path d="M1409.285799096868 450.0674110171957L1267.1877867487342 403.89696800974025 1221.0173437412786 545.9949803578742 1363.1153560894127 592.1654233653296z" fill="rgba(28, 83, 142, 0.4)" class="triangle-float3"></path><path d="M327.0407913924882 451.0204803726167L242.56814038383476 468.9756966261678 260.52335663738586 553.4483476348213 344.9960076460393 535.4931313812701z" fill="rgba(28, 83, 142, 0.4)" class="triangle-float3"></path><path d="M410.86 26.98 a116.18 116.18 0 1 0 232.36 0 a116.18 116.18 0 1 0 -232.36 0z" fill="rgba(28, 83, 142, 0.4)" class="triangle-float2"></path><path d="M693.732,715.179C750.036,714.421,793.607,671.53,821.16,622.423C848.019,574.554,861.534,515.275,831.774,469.154C803.697,425.641,745.514,425.471,693.732,424.944C640.554,424.403,580.161,421.995,550.735,466.293C519.12,513.885,531.752,576.398,560.216,625.939C588.799,675.687,636.362,715.952,693.732,715.179" fill="rgba(28, 83, 142, 0.4)" class="triangle-float1"></path><path d="M1274.817,561.526C1319.204,562.574,1365.594,544.621,1385.445,504.907C1403.927,467.933,1383.038,426.122,1359.477,392.158C1339.786,363.772,1309.362,345.815,1274.817,345.434C1239.55,345.045,1206.284,360.816,1186.857,390.252C1165.107,423.208,1154.842,464.764,1172.881,499.889C1192.323,537.746,1232.271,560.522,1274.817,561.526" fill="rgba(28, 83, 142, 0.4)" class="triangle-float1"></path><path d="M13.066,426.096C36.707,426.01,55.247,408.596,67.39,388.312C79.955,367.323,88.669,341.546,76.324,320.426C64.057,299.44,37.34,294.093,13.066,295.376C-8.764,296.53,-28.484,307.719,-39.584,326.551C-50.869,345.696,-52.342,369.067,-41.951,388.712C-30.84,409.719,-10.698,426.183,13.066,426.096" fill="rgba(28, 83, 142, 0.4)" class="triangle-float1"></path><path d="M681.611044364078 47.63804125961137L613.8470604368752 165.00870434480754 731.2177235220713 232.77268827201038 798.9817074492742 115.40202518681423z" fill="rgba(28, 83, 142, 0.4)" class="triangle-float1"></path><path d="M1228.8222072122448 158.75712137996894L1340.2407679269602 151.07267303831637 1287.0683570983183 69.1943405617354z" fill="rgba(28, 83, 142, 0.4)" class="triangle-float2"></path><path d="M770.0724513605744 132.40252569672293L831.4780947007711 53.80688633400548 752.8824553380537-7.598757006191164 691.476811997857 70.99688235652627z" fill="rgba(28, 83, 142, 0.4)" class="triangle-float2"></path><path d="M-51.9 306.09 a134.32 134.32 0 1 0 268.64 0 a134.32 134.32 0 1 0 -268.64 0z" fill="rgba(28, 83, 142, 0.4)" class="triangle-float2"></path></g><defs><mask id="SvgjsMask1172"><rect width="1440" height="560" fill="#ffffff"></rect></mask><linearGradient x1="0%" y1="50%" x2="100%" y2="50%" gradientUnits="userSpaceOnUse" id="SvgjsLinearGradient1173"><stop stop-color="rgba(6, 32, 66, 1)" offset="0.85"></stop><stop stop-color="rgba(0, 44, 101, 1)" offset="1"></stop></linearGradient><style>
            @keyframes float1 {
                0%{transform: translate(0, 0)}
                50%{transform: translate(-10px, 0)}
                100%{transform: translate(0, 0)}
            }

            .triangle-float1 {
                animation: float1 5s infinite;
            }

            @keyframes float2 {
                0%{transform: translate(0, 0)}
                50%{transform: translate(-5px, -5px)}
                100%{transform: translate(0, 0)}
            }

            .triangle-float2 {
                animation: float2 4s infinite;
            }

            @keyframes float3 {
                0%{transform: translate(0, 0)}
                50%{transform: translate(0, -10px)}
                100%{transform: translate(0, 0)}
            }

            .triangle-float3 {
                animation: float3 6s infinite;
            }
        </style></defs></svg>